HIERARCHY
ROOT Hips
{
    OFFSET   0.000000   0.000000   0.000000
    CHANNELS 6 Xposition Yposition Zposition Zrotation Xrotation Yrotation
    JOINT Chest
    {
        OFFSET   0.000000   8.007230   0.000000
        CHANNELS 3 Zrotation Xrotation Yrotation
        JOINT Chest2
        {
            OFFSET   0.000000  22.077100   0.000000
            CHANNELS 3 Zrotation Xrotation Yrotation
            JOINT Neck
            {
                OFFSET   0.000000  23.254700   0.000000
                CHANNELS 3 Zrotation Xrotation Yrotation
                JOINT Head
                {
                    OFFSET   0.000010  14.370000   1.956610
                    CHANNELS 3 Zrotation Xrotation Yrotation
                    End Site
                    {
                        OFFSET   0.000000  19.566000   0.000000
                    }
                }
            }
            JOINT LeftCollar
            {
                OFFSET   3.911900  19.017000  -0.467063
                CHANNELS 3 Zrotation Xrotation Yrotation
                JOINT LeftShoulder
                {
                    OFFSET  10.383700   0.000000   0.000000
                    CHANNELS 3 Zrotation Xrotation Yrotation
                    JOINT LeftElbow
                    {
                        OFFSET  26.662100   0.001671   0.000522
                        CHANNELS 3 Zrotation Xrotation Yrotation
                        JOINT LeftWrist
                        {
                            OFFSET  28.869000   0.000037  -0.000114
                            CHANNELS 3 Zrotation Xrotation Yrotation
                            JOINT LeftFinger0
                            {
                                OFFSET   2.044650  -2.323450   3.252850
                                CHANNELS 3 Zrotation Xrotation Yrotation
                                JOINT LeftFinger01
                                {
                                    OFFSET   3.088140   0.000000   0.000000
                                    CHANNELS 3 Zrotation Xrotation Yrotation
                                    JOINT LeftFinger02
                                    {
                                        OFFSET   2.639460   0.000000   0.000000
                                        CHANNELS 3 Zrotation Xrotation Yrotation
                                        End Site
                                        {
                                            OFFSET   2.582190   0.000000   0.000000
                                        }
                                    }
                                }
                            }
                            JOINT LeftFinger1
                            {
                                OFFSET   8.364480   0.000000   3.252850
                                CHANNELS 3 Zrotation Xrotation Yrotation
                                JOINT LeftFinger11
                                {
                                    OFFSET   4.646930   0.000000   0.000000
                                    CHANNELS 3 Zrotation Xrotation Yrotation
                                    JOINT LeftFinger12
                                    {
                                        OFFSET   2.323470   0.000000   0.000000
                                        CHANNELS 3 Zrotation Xrotation Yrotation
                                        End Site
                                        {
                                            OFFSET   2.273050   0.000000   0.000000
                                        }
                                    }
                                }
                            }
                            JOINT LeftFinger2
                            {
                                OFFSET   8.364490   0.000016   1.078090
                                CHANNELS 3 Zrotation Xrotation Yrotation
                                JOINT LeftFinger21
                                {
                                    OFFSET   5.111620   0.000000   0.000000
                                    CHANNELS 3 Zrotation Xrotation Yrotation
                                    JOINT LeftFinger22
                                    {
                                        OFFSET   2.788150   0.000013   0.000000
                                        CHANNELS 3 Zrotation Xrotation Yrotation
                                        End Site
                                        {
                                            OFFSET   2.727660   0.000000   0.000000
                                        }
                                    }
                                }
                            }
                            JOINT LeftFinger3
                            {
                                OFFSET   7.899780   0.000016  -1.078090
                                CHANNELS 3 Zrotation Xrotation Yrotation
                                JOINT LeftFinger31
                                {
                                    OFFSET   4.646930   0.000000   0.000000
                                    CHANNELS 3 Zrotation Xrotation Yrotation
                                    JOINT LeftFinger32
                                    {
                                        OFFSET   2.323470   0.000000   0.000000
                                        CHANNELS 3 Zrotation Xrotation Yrotation
                                        End Site
                                        {
                                            OFFSET   2.273050   0.000000   0.000000
                                        }
                                    }
                                }
                            }
                            JOINT LeftFinger4
                            {
                                OFFSET   7.435080   0.000000  -3.252850
                                CHANNELS 3 Zrotation Xrotation Yrotation
                                JOINT LeftFinger41
                                {
                                    OFFSET   3.717550   0.000000   0.000000
                                    CHANNELS 3 Zrotation Xrotation Yrotation
                                    JOINT LeftFinger42
                                    {
                                        OFFSET   1.858760   0.000000   0.000000
                                        CHANNELS 3 Zrotation Xrotation Yrotation
                                        End Site
                                        {
                                            OFFSET   1.818440   0.000000   0.000000
                                        }
                                    }
                                }
                            }
                        }
                    }
                }
            }
            JOINT RightCollar
            {
                OFFSET  -3.911900  19.017000  -0.467064
                CHANNELS 3 Zrotation Xrotation Yrotation
                JOINT RightShoulder
                {
                    OFFSET -10.383700   0.000000   0.000000
                    CHANNELS 3 Zrotation Xrotation Yrotation
                    JOINT RightElbow
                    {
                        OFFSET -26.662100   0.001633   0.000260
                        CHANNELS 3 Zrotation Xrotation Yrotation
                        JOINT RightWrist
                        {
                            OFFSET -28.869000  -0.000045  -0.000080
                            CHANNELS 3 Zrotation Xrotation Yrotation
                            JOINT RightFinger0
                            {
                                OFFSET  -2.044660  -2.323490   3.252850
                                CHANNELS 3 Zrotation Xrotation Yrotation
                                JOINT RightFinger01
                                {
                                    OFFSET  -3.088140   0.000000   0.000000
                                    CHANNELS 3 Zrotation Xrotation Yrotation
                                    JOINT RightFinger02
                                    {
                                        OFFSET  -2.639450   0.000000   0.000000
                                        CHANNELS 3 Zrotation Xrotation Yrotation
                                        End Site
                                        {
                                            OFFSET  -2.582190   0.000000   0.000000
                                        }
                                    }
                                }
                            }
                            JOINT RightFinger1
                            {
                                OFFSET  -8.364480   0.000000   3.252850
                                CHANNELS 3 Zrotation Xrotation Yrotation
                                JOINT RightFinger11
                                {
                                    OFFSET  -4.646920   0.000000   0.000000
                                    CHANNELS 3 Zrotation Xrotation Yrotation
                                    JOINT RightFinger12
                                    {
                                        OFFSET  -2.323470   0.000000   0.000000
                                        CHANNELS 3 Zrotation Xrotation Yrotation
                                        End Site
                                        {
                                            OFFSET  -2.273050   0.000000   0.000000
                                        }
                                    }
                                }
                            }
                            JOINT RightFinger2
                            {
                                OFFSET  -8.364480   0.000000   1.078090
                                CHANNELS 3 Zrotation Xrotation Yrotation
                                JOINT RightFinger21
                                {
                                    OFFSET  -5.111610   0.000000   0.000000
                                    CHANNELS 3 Zrotation Xrotation Yrotation
                                    JOINT RightFinger22
                                    {
                                        OFFSET  -2.788160   0.000000   0.000000
                                        CHANNELS 3 Zrotation Xrotation Yrotation
                                        End Site
                                        {
                                            OFFSET  -2.727660   0.000000   0.000000
                                        }
                                    }
                                }
                            }
                            JOINT RightFinger3
                            {
                                OFFSET  -7.899780   0.000000  -1.078090
                                CHANNELS 3 Zrotation Xrotation Yrotation
                                JOINT RightFinger31
                                {
                                    OFFSET  -4.646930   0.000000   0.000000
                                    CHANNELS 3 Zrotation Xrotation Yrotation
                                    JOINT RightFinger32
                                    {
                                        OFFSET  -2.323470   0.000000   0.000000
                                        CHANNELS 3 Zrotation Xrotation Yrotation
                                        End Site
                                        {
                                            OFFSET  -2.273050   0.000000   0.000000
                                        }
                                    }
                                }
                            }
                            JOINT RightFinger4
                            {
                                OFFSET  -7.435090   0.000000  -3.252850
                                CHANNELS 3 Zrotation Xrotation Yrotation
                                JOINT RightFinger41
                                {
                                    OFFSET  -3.717550   0.000000   0.000000
                                    CHANNELS 3 Zrotation Xrotation Yrotation
                                    JOINT RightFinger42
                                    {
                                        OFFSET  -1.858760   0.000000   0.000000
                                        CHANNELS 3 Zrotation Xrotation Yrotation
                                        End Site
                                        {
                                            OFFSET  -1.818440   0.000000   0.000000
                                        }
                                    }
                                }
                            }
                        }
                    }
                }
            }
        }
    }
    JOINT LeftHip
    {
        OFFSET   9.782990   0.000000   0.000000
        CHANNELS 3 Zrotation Xrotation Yrotation
        JOINT LeftKnee
        {
            OFFSET  -0.000063 -41.789100   0.001657
            CHANNELS 3 Zrotation Xrotation Yrotation
            JOINT LeftAnkle
            {
                OFFSET   0.000078 -41.133200  -0.000113
                CHANNELS 3 Zrotation Xrotation Yrotation
                JOINT LeftToe
                {
                    OFFSET   0.000000  -6.358970  14.674500
                    CHANNELS 3 Zrotation Xrotation Yrotation
                    End Site
                    {
                        OFFSET   0.000000   0.000000   3.913200
                    }
                }
            }
        }
    }
    JOINT RightHip
    {
        OFFSET  -9.782990   0.000000   0.000000
        CHANNELS 3 Zrotation Xrotation Yrotation
        JOINT RightKnee
        {
            OFFSET   0.000053 -41.789200   0.000277
            CHANNELS 3 Zrotation Xrotation Yrotation
            JOINT RightAnkle
            {
                OFFSET   0.000030 -41.133200  -0.000150
                CHANNELS 3 Zrotation Xrotation Yrotation
                JOINT RightToe
                {
                    OFFSET   0.000000  -6.358960  14.674500
                    CHANNELS 3 Zrotation Xrotation Yrotation
                    End Site
                    {
                        OFFSET   0.000000   0.000000   3.913200
                    }
                }
            }
        }
    }
}
MOTION
Frames: 4
Frame Time:   0.016667
  0.786417  89.573400  -0.433585  -2.908490  -6.365810  -6.481150   0.455753   4.566900   0.575502   0.869467   9.138070   1.119760   0.771961  -0.585130   0.001363   1.268480  -1.186110   3.869710  -5.046200  -1.576280   3.485440 -73.483900  15.833000  -0.201548  -1.123070  -3.251060 -17.437600  10.624200  -5.053960   4.044960  42.493700  39.217400 -71.948200 -31.771600   0.000000   0.000000 -10.892800   0.001526  -0.000000 -30.351400   5.296950  -8.959390 -25.172700   0.008209   0.000829 -17.620900   0.011863   0.000459 -28.302200  -1.329870   2.467450 -34.514300  -0.000706  -0.001170 -22.986500   0.011033  -0.000824 -27.822100  -1.309120   2.478500 -31.096800  -0.009924   0.000363 -20.710500   0.000567   0.000217 -28.576600  -1.341510   2.461140 -42.908100  -0.004773   0.000779 -28.576800  -0.005995  -0.009951   9.503310   1.418430   8.178740  68.781000   4.809520  -7.249810  -0.482827  -8.035550  12.733300 -10.603700  -4.445910   1.906680 -39.356100  33.396000  65.796800  30.906400  -0.001688  -0.001918  10.453200  -0.000286   0.002283  32.516600  10.875700  16.492300  27.898400  -0.001076   0.005909  19.521800   0.003125   0.002809  31.649500   0.407227   0.660607  47.477800  -0.001179  -0.005766  31.620200  -0.003139  -0.006398  33.047600   0.423291   0.650456  49.584200  -0.002784   0.000415  33.016500   0.004972   0.003959  44.313900  -2.428030  -2.486850  66.549400   0.003475  -0.001740  44.321900  -0.000879   0.007290   2.265660   9.203650   6.075540   0.846780   0.112649   4.553150  -1.651730  -3.409290   0.758953  -0.000000   0.000000   0.000000   1.404380   7.153460   2.016570  -0.235685   1.748870  -6.048840   0.149527  -2.951760   1.007840   0.000000   0.000000  -0.000000
  0.781029  89.573400  -0.442018  -2.915170  -6.385400  -6.490690   0.455909   4.575780   0.575328   0.869763   9.155800   1.119320   0.777424  -0.577019   0.001352   1.277430  -1.169360   3.869550  -5.045310  -1.577000   3.497310 -73.489100  15.852300  -0.212989  -1.120640  -3.248210 -17.434400  10.632100  -5.065440   4.051310  42.476100  39.191200 -71.882700 -31.777800   0.000000  -0.000000 -10.892800   0.001526  -0.000000 -30.342200   5.280980  -8.936110 -25.163200   0.008210   0.000832 -17.614300   0.011863   0.000459 -28.301200  -1.341550   2.489320 -34.499400  -0.000709  -0.001168 -22.976600   0.011037  -0.000822 -27.821000  -1.320560   2.500500 -31.080000  -0.009931   0.000367 -20.699300   0.000563   0.000218 -28.567200  -1.352940   2.483150 -42.894400  -0.004773   0.000779 -28.567700  -0.005995  -0.009951   9.503600   1.415520   8.179120  68.783400   4.840130  -7.231610  -0.489080  -8.009730  12.757500 -10.597700  -4.423360   1.918350 -39.377800  33.414200  65.812100  30.892700  -0.001682  -0.001928  10.446400  -0.000286   0.002286  32.517300  10.875800  16.491400  27.898800  -0.001077   0.005911  19.523000   0.003123   0.002811  31.643000   0.424688   0.689115  47.468200  -0.001177  -0.005762  31.613800  -0.003141  -0.006397  33.047600   0.441506   0.678489  49.581900  -0.002784   0.000410  33.016900   0.004971   0.003956  44.301100  -2.427670  -2.486580  66.530400   0.003473  -0.001743  44.309300  -0.000880   0.007289   2.271700   9.206780   6.075430   0.846588   0.136446   4.550680  -1.651090  -3.415720   0.766877   0.000000   0.000000  -0.000000   1.414850   7.169320   2.016560  -0.235240   1.750140  -6.048870   0.145575  -2.951230   1.011270  -0.000000   0.000000  -0.000000
  0.771590  89.573300  -0.456824  -2.927400  -6.419250  -6.507850   0.455986   4.592610   0.575160   0.869744   9.189450   1.118920   0.788009  -0.564904   0.001341   1.294950  -1.144440   3.868540  -5.041080  -1.581380   3.509180 -73.499300  15.898000  -0.238487  -1.116150  -3.245460 -17.425600  10.639900  -5.076930   4.057660  42.458700  39.164900 -71.817300 -31.784000   0.000000   0.000000 -10.892700   0.001525  -0.000000 -30.332900   5.265000  -8.912840 -25.153800   0.008211   0.000841 -17.607700   0.011863   0.000465 -28.300100  -1.353220   2.511190 -34.484600  -0.000717  -0.001161 -22.966700   0.011046  -0.000817 -27.820000  -1.332000   2.522500 -31.063200  -0.009949   0.000375 -20.688100   0.000552   0.000221 -28.556400  -1.364370   2.505150 -42.879400  -0.004772   0.000780 -28.557700  -0.005995  -0.009950   9.506400   1.395220   8.179430  68.790300   4.906800  -7.213800  -0.502283  -7.955130  12.800700 -10.591100  -4.400780   1.937070 -39.398900  33.437800  65.828800  30.879100  -0.001675  -0.001947  10.439500  -0.000287   0.002289  32.521800  10.876100  16.485100  27.901600  -0.001081   0.005916  19.531100   0.003119   0.002820  31.636400   0.442149   0.717624  47.458700  -0.001169  -0.005750  31.607500  -0.003145  -0.006395  33.050300   0.459720   0.706522  49.579600  -0.002784   0.000397  33.020000   0.004968   0.003949  44.288400  -2.427320  -2.486310  66.511500   0.003469  -0.001752  44.296700  -0.000885   0.007285   2.282350   9.225410   6.075580   0.846406   0.160244   4.545540  -1.649450  -3.422150   0.782225   0.000000   0.000000   0.000000   1.433120   7.192380   2.016530  -0.234149   1.757500  -6.048910   0.138740  -2.950700   1.017280   0.000000   0.000000   0.000000
  0.762994  89.574100  -0.470034  -2.939580  -6.449350  -6.523640   0.454654   4.610860   0.580655   0.866421   9.226000   1.130010   0.799234  -0.559001   0.001355   1.313470  -1.132640   3.847690  -5.029050  -1.591220   3.505730 -73.511400  15.966700  -0.276887  -1.120210  -3.279790 -17.408200  10.636000  -5.075470   4.057390  42.478200  39.188400 -71.855300 -31.776100   0.000000   0.000000 -10.892600   0.001528  -0.000000 -30.333000   5.274790  -8.929030 -25.155100   0.008211   0.000856 -17.608600   0.011865   0.000479 -28.300800  -1.345300   2.496470 -34.486200  -0.000734  -0.001150 -22.967800   0.011062  -0.000810 -27.820700  -1.324210   2.507710 -31.063400  -0.009975   0.000386 -20.688300   0.000534   0.000230 -28.555300  -1.356340   2.490490 -42.877900  -0.004775   0.000779 -28.556700  -0.005994  -0.009947   9.514550   1.348490   8.156510  68.798000   4.989910  -7.215360  -0.521499  -7.883680  12.840700 -10.622600  -4.421160   1.950790 -39.394600  33.445600  65.825700  30.898700  -0.001691  -0.001964  10.449400  -0.000284   0.002279  32.559500  10.880400  16.466900  27.931300  -0.001087   0.005920  19.554600   0.003111   0.002836  31.637000   0.430706   0.699051  47.459100  -0.001158  -0.005730  31.607800  -0.003152  -0.006391  33.064000   0.448013   0.688099  49.598000  -0.002783   0.000377  33.033500   0.004965   0.003937  44.291600  -2.428860  -2.487480  66.516500   0.003462  -0.001766  44.300000  -0.000892   0.007280   2.291610   9.279390   6.076920   0.847421   0.108310   4.538580  -1.643270  -3.392750   0.799286  -0.000000   0.000000  -0.000000   1.449430   7.203730   2.016440  -0.235125   1.774900  -6.045140   0.132453  -2.951290   1.022890   0.000000   0.000000   0.000000
